<svg id="Calque_1" data-name="Calque 1" xmlns="http://www.w3.org/2000/svg" xmlns:xlink="http://www.w3.org/1999/xlink" viewBox="0 0 220 80"><defs><style>.cls-1{fill:#0b8bff;}.cls-2{fill:url(#Dégradé_sans_nom_5);}.cls-3{fill:url(#Dégradé_sans_nom_16);}.cls-4{fill:#1fa677;}.cls-5{fill:#0b83b2;}.cls-6{fill:none;}</style><linearGradient id="Dégradé_sans_nom_5" x1="41.32" y1="22.29" x2="41.22" y2="59.48" gradientUnits="userSpaceOnUse"><stop offset="0" stop-color="#2bef8b"/><stop offset="1" stop-color="#2eedb6"/></linearGradient><linearGradient id="Dégradé_sans_nom_16" x1="58.04" y1="53.71" x2="57.99" y2="30.75" gradientUnits="userSpaceOnUse"><stop offset="0" stop-color="#10bcff"/><stop offset="1" stop-color="#0b8bff"/></linearGradient></defs><path class="cls-1" d="M81.48,41.91H76.83l-.74,2.2H72.92l4.5-12.44h3.51l4.5,12.44H82.22Zm-.78-2.34L79.16,35l-1.53,4.55Zm6.07-3.1a4.24,4.24,0,0,1,1.57-1.77,4.12,4.12,0,0,1,2.21-.62,4,4,0,0,1,1.79.41,3.14,3.14,0,0,1,1.26,1.1V31h3V44.11h-3V42.7a3,3,0,0,1-1.21,1.13,3.87,3.87,0,0,1-1.84.42,4,4,0,0,1-2.21-.62,4.33,4.33,0,0,1-1.57-1.8,6.48,6.48,0,0,1,0-5.36Zm6.2.91a2,2,0,0,0-1.53-.66,2.06,2.06,0,0,0-1.53.65,2.43,2.43,0,0,0-.63,1.78,2.5,2.5,0,0,0,.63,1.8A2.11,2.11,0,0,0,93,41a2.49,2.49,0,0,0,.63-1.79A2.46,2.46,0,0,0,93,37.38Zm11.68,6.41a3.94,3.94,0,0,1-1.73-1.31,3.55,3.55,0,0,1-.68-2.09h3.22a1.62,1.62,0,0,0,.48,1.06,1.56,1.56,0,0,0,1.07.36,1.71,1.71,0,0,0,1.06-.31,1.05,1.05,0,0,0,.39-.86,1,1,0,0,0-.31-.76,2.57,2.57,0,0,0-.76-.5,10.94,10.94,0,0,0-1.29-.44,14.24,14.24,0,0,1-2-.75,3.7,3.7,0,0,1-1.31-1.1,3,3,0,0,1-.55-1.89,3.25,3.25,0,0,1,1.26-2.72,5.15,5.15,0,0,1,3.28-1,5.23,5.23,0,0,1,3.32,1,3.52,3.52,0,0,1,1.34,2.73h-3.28a1.26,1.26,0,0,0-.44-.94,1.52,1.52,0,0,0-1-.35,1.31,1.31,0,0,0-.88.29,1.05,1.05,0,0,0-.34.84,1,1,0,0,0,.57.94,9,9,0,0,0,1.77.73,15.91,15.91,0,0,1,2,.78,3.73,3.73,0,0,1,1.3,1.08,2.87,2.87,0,0,1,.55,1.83,3.58,3.58,0,0,1-.54,1.93,3.73,3.73,0,0,1-1.57,1.38,5.25,5.25,0,0,1-2.43.52A6.28,6.28,0,0,1,104.65,43.79Zm8.87-7.32a4.35,4.35,0,0,1,1.76-1.77,5.29,5.29,0,0,1,2.58-.62,4.91,4.91,0,0,1,3.11,1,4.63,4.63,0,0,1,1.64,2.75h-3.23a1.56,1.56,0,0,0-1.58-1.13,1.59,1.59,0,0,0-1.33.64,3,3,0,0,0-.49,1.86,3,3,0,0,0,.49,1.85,1.6,1.6,0,0,0,1.33.65,1.55,1.55,0,0,0,1.58-1.14h3.23A4.63,4.63,0,0,1,121,43.26a4.88,4.88,0,0,1-3.1,1,5.19,5.19,0,0,1-2.58-.62,4.35,4.35,0,0,1-1.76-1.77,6.08,6.08,0,0,1,0-5.39Zm10.92-3.75a1.5,1.5,0,0,1-.5-1.16,1.54,1.54,0,0,1,.5-1.18,2,2,0,0,1,2.59,0,1.54,1.54,0,0,1,.5,1.18,1.5,1.5,0,0,1-.5,1.16,2,2,0,0,1-2.59,0Zm2.81,1.5v9.89h-3V34.22Zm11.47,5.67h-6.86a2,2,0,0,0,.59,1.41,1.81,1.81,0,0,0,1.29.49,1.61,1.61,0,0,0,1.58-1h3.22a4.41,4.41,0,0,1-2.51,3,5.67,5.67,0,0,1-4.77-.18,4.4,4.4,0,0,1-1.78-1.77,6.08,6.08,0,0,1,0-5.39,4.23,4.23,0,0,1,1.76-1.77,5.76,5.76,0,0,1,5.16,0,4.36,4.36,0,0,1,1.74,1.72,5.23,5.23,0,0,1,.63,2.61A6.68,6.68,0,0,1,138.72,39.89Zm-3.05-1.68a1.57,1.57,0,0,0-.53-1.24,2.13,2.13,0,0,0-2.62,0,2,2,0,0,0-.64,1.26Zm13.5-3a4.39,4.39,0,0,1,1,3.09v5.78h-3V38.74a2.18,2.18,0,0,0-.51-1.54,1.78,1.78,0,0,0-1.38-.55,1.82,1.82,0,0,0-1.39.55,2.18,2.18,0,0,0-.51,1.54v5.37h-3V34.22h3v1.31a3.23,3.23,0,0,1,1.24-1,3.89,3.89,0,0,1,1.76-.38A3.59,3.59,0,0,1,149.17,35.24Zm8.66,6.3v2.57h-1.54a3.8,3.8,0,0,1-2.57-.8,3.33,3.33,0,0,1-.92-2.64V36.74h-1.21V34.22h1.21V31.81h3v2.41h2v2.52h-2v4a.85.85,0,0,0,.21.64,1,1,0,0,0,.71.19Zm1.91-8.82a1.51,1.51,0,0,1-.51-1.16,1.55,1.55,0,0,1,.51-1.18,1.84,1.84,0,0,1,1.3-.47,1.8,1.8,0,0,1,1.28.47,1.55,1.55,0,0,1,.51,1.18,1.51,1.51,0,0,1-.51,1.16,1.76,1.76,0,0,1-1.28.47A1.79,1.79,0,0,1,159.74,32.72Zm2.81,1.5v9.89h-3V34.22Zm2.17,2.25a4.18,4.18,0,0,1,1.57-1.77,4.12,4.12,0,0,1,2.21-.62,3.87,3.87,0,0,1,1.84.42,3.2,3.2,0,0,1,1.21,1.12v-1.4h3v9.89h-3v-1.4a3.18,3.18,0,0,1-1.23,1.12,3.86,3.86,0,0,1-1.83.42,4,4,0,0,1-2.2-.62,4.26,4.26,0,0,1-1.57-1.8,6.48,6.48,0,0,1,0-5.36Zm6.2.91a2,2,0,0,0-1.53-.66,2.06,2.06,0,0,0-1.53.65,2.43,2.43,0,0,0-.63,1.78,2.5,2.5,0,0,0,.63,1.8,2.11,2.11,0,0,0,3.06,0,2.49,2.49,0,0,0,.63-1.79A2.46,2.46,0,0,0,170.92,37.38Zm21.42-2.15a4.29,4.29,0,0,1,1.09,3.1v5.78h-3V38.74a2.07,2.07,0,0,0-.5-1.48,1.84,1.84,0,0,0-1.39-.52,1.86,1.86,0,0,0-1.4.52,2.07,2.07,0,0,0-.5,1.48v5.37h-3V38.74a2,2,0,0,0-.51-1.48,2.12,2.12,0,0,0-2.78,0,2,2,0,0,0-.51,1.48v5.37h-3V34.22h3v1.24a3.26,3.26,0,0,1,1.21-1,3.77,3.77,0,0,1,1.68-.36,4.1,4.1,0,0,1,2,.47A3.47,3.47,0,0,1,186.07,36a3.89,3.89,0,0,1,1.4-1.33,3.79,3.79,0,0,1,1.93-.51A3.94,3.94,0,0,1,192.34,35.23Z"/><path class="cls-2" d="M59.88,22.8c0,1.13-1.06,1.33-2.38,1.88a25.23,25.23,0,0,0-4.66,2.56c-2.78,2.07-5.62,5.12-6.79,8.47a6.58,6.58,0,0,0-.38,2.14,5.68,5.68,0,0,0,1.19,3.38c1.22,1.56,4.11,3.13,4.73,5.07.66,2.1-1.42,4.83-2.9,6.07a24.77,24.77,0,0,1-3,2.18c-4.28,2.65-13.38,7.64-18.48,4.94-6.05-3.19-4.65-14.34-3.46-19.65a106.84,106.84,0,0,1,3-12.22C29.52,19.8,37,20.07,44.08,19.85c3.45-.11,10.29-.51,14.37,1.36C59.13,21.55,59.88,22.05,59.88,22.8Z"/><path class="cls-3" d="M65,42.18c0,3.93,1.36,7.94.86,11.86a5.14,5.14,0,0,1-4.12,4.51l-.63.13a10.31,10.31,0,0,1-3.94-.16c-5.7-1.32,3.94-8.28,3.94-10.89,0-.08,0-.49,0-.57-.08-2.89-1.76-3.61-3.67-4.68-2.12-1.19-4.92-1.37-6.6-3.29-1.9-2.14-.77-5.32.6-7.39a13.24,13.24,0,0,1,4.63-4.42c4.52-2.4,8.74-.75,9.84,4.18C66.73,35.05,65,38.54,65,42.18Z"/><path class="cls-4" d="M51.59,46.3c.66,2.1-1.42,4.83-2.9,6.07a24.77,24.77,0,0,1-3,2.18V37.85a5.68,5.68,0,0,0,1.19,3.38C48.08,42.79,51,44.36,51.59,46.3Z"/><path class="cls-5" d="M61.14,47.63v11a10.31,10.31,0,0,1-3.94-.16C51.5,57.2,61.14,50.24,61.14,47.63Z"/><rect class="cls-6" width="220" height="80"/><path class="cls-1" d="M97.33,48.31a1.85,1.85,0,0,1,.92-.23,2,2,0,0,1,1,.26,1.92,1.92,0,0,1,.7.74,2.45,2.45,0,0,1,.25,1.11A2.52,2.52,0,0,1,100,51.3a2,2,0,0,1-.71.76,1.86,1.86,0,0,1-1,.26,1.76,1.76,0,0,1-.93-.23,1.58,1.58,0,0,1-.61-.59v.76H96V46.71h.68v2.2A1.7,1.7,0,0,1,97.33,48.31Zm2,1.07a1.37,1.37,0,0,0-.51-.53,1.4,1.4,0,0,0-.7-.18,1.34,1.34,0,0,0-.7.19,1.37,1.37,0,0,0-.51.53,1.82,1.82,0,0,0,0,1.62,1.37,1.37,0,0,0,.51.53,1.44,1.44,0,0,0,.7.19,1.41,1.41,0,0,0,.7-.19,1.37,1.37,0,0,0,.51-.53,1.77,1.77,0,0,0,.18-.82A1.73,1.73,0,0,0,99.32,49.38Z"/><path class="cls-1" d="M104.83,50.46h-3.29a1.38,1.38,0,0,0,.42.95,1.36,1.36,0,0,0,.92.34,1.27,1.27,0,0,0,.74-.21A1.13,1.13,0,0,0,104,51h.74a1.71,1.71,0,0,1-.66,1,2,2,0,0,1-1.23.37,2,2,0,0,1-1-.26,1.77,1.77,0,0,1-.72-.74,2.29,2.29,0,0,1-.26-1.12,2.34,2.34,0,0,1,.25-1.12,1.77,1.77,0,0,1,.72-.74,2.13,2.13,0,0,1,1.06-.26,2,2,0,0,1,1,.25,1.84,1.84,0,0,1,.7.71,2.05,2.05,0,0,1,.24,1C104.85,50.18,104.84,50.31,104.83,50.46ZM104,49.23a1.09,1.09,0,0,0-.47-.43,1.51,1.51,0,0,0-.65-.14A1.25,1.25,0,0,0,102,49a1.32,1.32,0,0,0-.42.91h2.6A1.22,1.22,0,0,0,104,49.23Z"/><path class="cls-1" d="M106.58,48.71v2.42a.63.63,0,0,0,.13.43.64.64,0,0,0,.44.12h.51v.58H107a1.19,1.19,0,0,1-.85-.27,1.11,1.11,0,0,1-.29-.86V48.71h-.53v-.56h.53v-1h.68v1h1.08v.56Z"/><path class="cls-1" d="M109.31,48.71v2.42a.63.63,0,0,0,.13.43.64.64,0,0,0,.44.12h.51v.58h-.62a1.19,1.19,0,0,1-.85-.27,1.11,1.11,0,0,1-.29-.86V48.71h-.53v-.56h.53v-1h.68v1h1.08v.56Z"/><path class="cls-1" d="M114.94,50.46h-3.29a1.38,1.38,0,0,0,.42.95,1.36,1.36,0,0,0,.92.34,1.27,1.27,0,0,0,.74-.21,1.13,1.13,0,0,0,.41-.55h.74a1.71,1.71,0,0,1-.66,1,2,2,0,0,1-1.23.37,2,2,0,0,1-1-.26,1.77,1.77,0,0,1-.72-.74A2.29,2.29,0,0,1,111,50.2a2.34,2.34,0,0,1,.25-1.12,1.77,1.77,0,0,1,.72-.74,2.16,2.16,0,0,1,1.06-.26,2,2,0,0,1,1,.25,1.84,1.84,0,0,1,.7.71,2.05,2.05,0,0,1,.24,1C115,50.18,115,50.31,114.94,50.46Zm-.86-1.23a1.09,1.09,0,0,0-.47-.43,1.51,1.51,0,0,0-.65-.14,1.25,1.25,0,0,0-.88.33,1.32,1.32,0,0,0-.42.91h2.6A1.22,1.22,0,0,0,114.08,49.23Z"/><path class="cls-1" d="M117.06,48.27a1.57,1.57,0,0,1,.81-.2v.71h-.18c-.76,0-1.15.41-1.15,1.24v2.24h-.68V48.15h.68v.67A1.26,1.26,0,0,1,117.06,48.27Z"/><path class="cls-1" d="M120.66,49.08a1.92,1.92,0,0,1,.7-.74,2,2,0,0,1,1-.26,1.87,1.87,0,0,1,.9.22,1.68,1.68,0,0,1,.63.58V46.71h.69v5.55h-.69v-.77a1.72,1.72,0,0,1-.6.6,1.78,1.78,0,0,1-.93.23,1.89,1.89,0,0,1-1-.26,2.05,2.05,0,0,1-.7-.76,2.39,2.39,0,0,1-.25-1.11A2.33,2.33,0,0,1,120.66,49.08Zm3,.31a1.37,1.37,0,0,0-1.21-.72,1.4,1.4,0,0,0-.7.18,1.35,1.35,0,0,0-.5.53,1.73,1.73,0,0,0-.19.81,1.77,1.77,0,0,0,.19.82,1.35,1.35,0,0,0,.5.53,1.41,1.41,0,0,0,.7.19,1.38,1.38,0,0,0,.7-.19,1.3,1.3,0,0,0,.51-.53,1.82,1.82,0,0,0,0-1.62Z"/><path class="cls-1" d="M125.73,49.08a1.92,1.92,0,0,1,.7-.74,2,2,0,0,1,1-.26,1.83,1.83,0,0,1,.93.23,1.55,1.55,0,0,1,.6.59v-.75h.69v4.11H129v-.77a1.67,1.67,0,0,1-.61.6,1.74,1.74,0,0,1-.93.23,1.88,1.88,0,0,1-1-.26,2,2,0,0,1-.7-.76,2.39,2.39,0,0,1-.25-1.11A2.33,2.33,0,0,1,125.73,49.08Zm3,.31a1.24,1.24,0,0,0-.51-.53,1.29,1.29,0,0,0-.7-.19,1.4,1.4,0,0,0-.7.18,1.35,1.35,0,0,0-.5.53,1.73,1.73,0,0,0-.19.81,1.77,1.77,0,0,0,.19.82,1.35,1.35,0,0,0,.5.53,1.41,1.41,0,0,0,.7.19,1.38,1.38,0,0,0,.7-.19,1.24,1.24,0,0,0,.51-.53,1.82,1.82,0,0,0,0-1.62Z"/><path class="cls-1" d="M131.64,48.71v2.42a.63.63,0,0,0,.12.43.66.66,0,0,0,.45.12h.5v.58h-.62a1.19,1.19,0,0,1-.85-.27,1.11,1.11,0,0,1-.29-.86V48.71h-.53v-.56H131v-1h.69v1h1.07v.56Z"/><path class="cls-1" d="M133.53,49.08a1.92,1.92,0,0,1,.7-.74,2,2,0,0,1,1-.26,1.9,1.9,0,0,1,.94.23,1.59,1.59,0,0,1,.59.59v-.75h.69v4.11h-.69v-.77a1.67,1.67,0,0,1-.61.6,1.74,1.74,0,0,1-.93.23,1.88,1.88,0,0,1-1-.26,2.05,2.05,0,0,1-.7-.76,2.39,2.39,0,0,1-.25-1.11A2.33,2.33,0,0,1,133.53,49.08Zm3,.31a1.24,1.24,0,0,0-.51-.53,1.29,1.29,0,0,0-.7-.19,1.34,1.34,0,0,0-1.2.71,1.73,1.73,0,0,0-.18.81,1.77,1.77,0,0,0,.18.82,1.37,1.37,0,0,0,1.9.53,1.24,1.24,0,0,0,.51-.53,1.82,1.82,0,0,0,0-1.62Z"/><path class="cls-1" d="M142.28,48.71h-.86v3.55h-.69V48.71h-.53v-.56h.53v-.29a1.28,1.28,0,0,1,.36-1,1.65,1.65,0,0,1,1.14-.32v.57a.93.93,0,0,0-.63.17.8.8,0,0,0-.18.59v.29h.86Z"/><path class="cls-1" d="M143.82,52.06a1.8,1.8,0,0,1-.73-.74,2.29,2.29,0,0,1-.27-1.12,2.26,2.26,0,0,1,.27-1.12,1.91,1.91,0,0,1,.75-.74,2.19,2.19,0,0,1,1.06-.26,2.15,2.15,0,0,1,1,.26,1.84,1.84,0,0,1,.75.74A2.24,2.24,0,0,1,147,50.2a2.19,2.19,0,0,1-.28,1.12,1.87,1.87,0,0,1-.76.74,2.11,2.11,0,0,1-1.06.26A2,2,0,0,1,143.82,52.06Zm1.74-.51a1.24,1.24,0,0,0,.52-.52,1.62,1.62,0,0,0,.2-.83,1.66,1.66,0,0,0-.2-.84,1.22,1.22,0,0,0-.51-.52,1.47,1.47,0,0,0-1.37,0,1.26,1.26,0,0,0-.5.52,1.77,1.77,0,0,0-.18.84,1.8,1.8,0,0,0,.18.84,1.3,1.3,0,0,0,.49.52,1.43,1.43,0,0,0,1.37,0Z"/><path class="cls-1" d="M149.07,48.27a1.57,1.57,0,0,1,.81-.2v.71h-.18c-.76,0-1.14.41-1.14,1.24v2.24h-.69V48.15h.69v.67A1.29,1.29,0,0,1,149.07,48.27Z"/><path class="cls-1" d="M154,48.31a1.89,1.89,0,0,1,.93-.23,2,2,0,0,1,1,.26,1.85,1.85,0,0,1,.7.74,2.33,2.33,0,0,1,.25,1.11,2.39,2.39,0,0,1-.25,1.11,2,2,0,0,1-.7.76,1.88,1.88,0,0,1-1,.26,1.8,1.8,0,0,1-.94-.23,1.48,1.48,0,0,1-.6-.59v.76h-.69V46.71h.69v2.2A1.67,1.67,0,0,1,154,48.31Zm2,1.07a1.3,1.3,0,0,0-.51-.53,1.38,1.38,0,0,0-.7-.18,1.28,1.28,0,0,0-.69.19,1.37,1.37,0,0,0-.51.53,1.82,1.82,0,0,0,0,1.62,1.37,1.37,0,0,0,1.9.53A1.3,1.3,0,0,0,156,51a1.77,1.77,0,0,0,.19-.82A1.73,1.73,0,0,0,156,49.38Z"/><path class="cls-1" d="M161.47,50.46h-3.28a1.33,1.33,0,0,0,.41.95,1.38,1.38,0,0,0,.92.34,1.24,1.24,0,0,0,.74-.21,1.09,1.09,0,0,0,.42-.55h.73a1.71,1.71,0,0,1-.66,1,2.22,2.22,0,0,1-2.27.11,1.86,1.86,0,0,1-.73-.74,2.4,2.4,0,0,1-.26-1.12,2.34,2.34,0,0,1,.25-1.12,1.77,1.77,0,0,1,.72-.74,2.16,2.16,0,0,1,1.06-.26,2.08,2.08,0,0,1,1,.25,1.75,1.75,0,0,1,.69.71,2.05,2.05,0,0,1,.24,1A3,3,0,0,1,161.47,50.46Zm-.85-1.23a1.15,1.15,0,0,0-.47-.43,1.59,1.59,0,0,0-.66-.14,1.27,1.27,0,0,0-.88.33,1.32,1.32,0,0,0-.41.91h2.59A1.31,1.31,0,0,0,160.62,49.23Z"/><path class="cls-1" d="M163.23,48.71v2.42a.58.58,0,0,0,.13.43.63.63,0,0,0,.44.12h.5v.58h-.61a1.22,1.22,0,0,1-.86-.27,1.11,1.11,0,0,1-.28-.86V48.71H162v-.56h.54v-1h.68v1h1.07v.56Z"/><path class="cls-1" d="M166,48.71v2.42a.63.63,0,0,0,.12.43.67.67,0,0,0,.45.12h.5v.58h-.62a1.19,1.19,0,0,1-.85-.27,1.11,1.11,0,0,1-.28-.86V48.71h-.54v-.56h.54v-1H166v1H167v.56Z"/><path class="cls-1" d="M171.58,50.46H168.3a1.33,1.33,0,0,0,.41.95,1.38,1.38,0,0,0,.92.34,1.24,1.24,0,0,0,.74-.21,1.09,1.09,0,0,0,.42-.55h.73a1.71,1.71,0,0,1-.66,1,2.22,2.22,0,0,1-2.27.11,1.86,1.86,0,0,1-.73-.74,2.4,2.4,0,0,1-.26-1.12,2.34,2.34,0,0,1,.26-1.12,1.75,1.75,0,0,1,.71-.74,2.16,2.16,0,0,1,1.06-.26,2.08,2.08,0,0,1,1,.25,1.75,1.75,0,0,1,.69.71,2.06,2.06,0,0,1,.25,1A3.07,3.07,0,0,1,171.58,50.46Zm-.85-1.23a1.15,1.15,0,0,0-.47-.43,1.59,1.59,0,0,0-.66-.14,1.27,1.27,0,0,0-.88.33,1.32,1.32,0,0,0-.41.91h2.59A1.31,1.31,0,0,0,170.73,49.23Z"/><path class="cls-1" d="M173.7,48.27a1.61,1.61,0,0,1,.82-.2v.71h-.18c-.77,0-1.15.41-1.15,1.24v2.24h-.68V48.15h.68v.67A1.29,1.29,0,0,1,173.7,48.27Z"/><path class="cls-1" d="M177.31,49.08a1.81,1.81,0,0,1,.71-.74,2,2,0,0,1,1-.26,2,2,0,0,1,1.25.37,1.67,1.67,0,0,1,.65,1h-.73a1.11,1.11,0,0,0-.41-.6,1.31,1.31,0,0,0-.76-.21,1.19,1.19,0,0,0-.94.4,1.64,1.64,0,0,0-.36,1.14,1.66,1.66,0,0,0,.36,1.14,1.2,1.2,0,0,0,.94.41,1.28,1.28,0,0,0,.75-.21,1.1,1.1,0,0,0,.42-.6H181a1.84,1.84,0,0,1-.66,1,2,2,0,0,1-1.24.37,2,2,0,0,1-1-.26,1.75,1.75,0,0,1-.71-.74,2.37,2.37,0,0,1-.26-1.12A2.34,2.34,0,0,1,177.31,49.08Z"/><path class="cls-1" d="M181.86,49.08a1.85,1.85,0,0,1,.7-.74,2,2,0,0,1,1-.26,1.87,1.87,0,0,1,.94.23,1.52,1.52,0,0,1,.59.59v-.75h.69v4.11h-.69v-.77a1.57,1.57,0,0,1-.6.6,1.78,1.78,0,0,1-.93.23,1.83,1.83,0,0,1-1-.26,2,2,0,0,1-.7-.76,2.39,2.39,0,0,1-.26-1.11A2.33,2.33,0,0,1,181.86,49.08Zm3,.31a1.37,1.37,0,0,0-.51-.53,1.32,1.32,0,0,0-.7-.19,1.38,1.38,0,0,0-.7.18,1.28,1.28,0,0,0-.5.53,1.62,1.62,0,0,0-.19.81,1.66,1.66,0,0,0,.19.82,1.28,1.28,0,0,0,.5.53,1.38,1.38,0,0,0,.7.19,1.41,1.41,0,0,0,.7-.19,1.37,1.37,0,0,0,.51-.53,1.91,1.91,0,0,0,0-1.62Z"/><path class="cls-1" d="M188.13,48.27a1.57,1.57,0,0,1,.81-.2v.71h-.18c-.77,0-1.15.41-1.15,1.24v2.24h-.68V48.15h.68v.67A1.26,1.26,0,0,1,188.13,48.27Z"/><path class="cls-1" d="M193.45,50.46h-3.28a1.34,1.34,0,0,0,.42.95,1.36,1.36,0,0,0,.92.34,1.21,1.21,0,0,0,.73-.21,1.09,1.09,0,0,0,.42-.55h.74a1.76,1.76,0,0,1-.66,1,2.24,2.24,0,0,1-2.28.11,1.77,1.77,0,0,1-.72-.74,2.29,2.29,0,0,1-.27-1.12,2.34,2.34,0,0,1,.26-1.12,1.81,1.81,0,0,1,.71-.74,2.2,2.2,0,0,1,1.07-.26,2,2,0,0,1,1,.25,1.75,1.75,0,0,1,.69.71,2,2,0,0,1,.25,1A3.07,3.07,0,0,1,193.45,50.46Zm-.85-1.23a1.09,1.09,0,0,0-.47-.43,1.55,1.55,0,0,0-.65-.14,1.29,1.29,0,0,0-.89.33,1.32,1.32,0,0,0-.41.91h2.59A1.22,1.22,0,0,0,192.6,49.23Z"/></svg>