<svg width="25" height="25" viewBox="0 0 25 25" fill="none" xmlns="http://www.w3.org/2000/svg">
<rect width="25" height="25" rx="5" fill="#4B75F5"/>
<path fill-rule="evenodd" clip-rule="evenodd" d="M17.557 9.00066C17.458 8.99766 17.374 9.03366 17.308 9.09966L17.298 9.10766L10.745 15.6977L10.71 15.6617L8.593 13.5327C8.528 13.4697 8.442 13.4347 8.35 13.4347H8.344C8.251 13.4367 8.164 13.4747 8.099 13.5427C7.967 13.6797 7.967 13.8947 8.099 14.0327L10.498 16.4447C10.631 16.5787 10.862 16.5777 10.993 16.4447L17.793 9.60666C17.933 9.47166 17.936 9.24766 17.802 9.10766C17.738 9.04066 17.651 9.00266 17.557 9.00066Z" fill="white" stroke="white" stroke-width="0.5"/>
</svg>
