<svg width="81" height="78" viewBox="0 0 81 78" xmlns="http://www.w3.org/2000/svg">
    <g stroke="#B0BADD" stroke-width="1.1" fill="none" fill-rule="evenodd">
        <path d="M14.823 64.568 50.998 16.56l2.198 1.656L17.02 66.224M11.43 67.741l3.444 2.595 2.596-3.444-3.445-2.595zM51.1 16.432c2.841-4.164-3.352-5.843 1.178-9.075.832-.505 1.012-.142 1.012-.142s1.447 5.072 8.015 6.49c0 0 10.48 3.823 4.932 10.284 0 0-1.27 1.082-2.209.826 0 0-.542-.181-.069-1.41.268-.695 1.722-4.684-3.482-6.793 0 0-3.659-1.758-7.21 1.453"/>
    </g>
</svg>
