<svg width="81" height="78" viewBox="0 0 81 78" xmlns="http://www.w3.org/2000/svg" xmlns:xlink="http://www.w3.org/1999/xlink">
    <defs>
        <path id="k0g4m6ghja" d="M0 62.019h40.578V0H0z"/>
    </defs>
    <g transform="translate(19.181 8)" fill="none" fill-rule="evenodd">
        <path d="M27.012 3.352 14.278 3.34a3.619 3.619 0 0 0-3.575 3.056l-.012.082-3.883 44.649" stroke="#B0BADD"/>
        <path d="M9.873 17.34H30.63a4.886 4.886 0 0 1 4.813 4.058l.086 1.01 3.216 35.368M8.599 29.717h25.046M8.461 32.615h25.581M10.792 56.472a5.245 5.245 0 1 1-10.49 0 5.245 5.245 0 0 1 10.49 0z" stroke="#B0BADD"/>
        <path d="M9.736 20.235h19.736a3.62 3.62 0 0 1 3.573 3.04l.024.185 3.107 34.316" stroke="#B0BADD"/>
        <mask id="jggbsd0p4b" fill="#fff">
            <use xlink:href="#k0g4m6ghja"/>
        </mask>
        <path stroke="#B0BADD" mask="url(#jggbsd0p4b)" d="M34.247 61.235h6.03v-3.618h-6.03zM27.012.94H12.903a4.824 4.824 0 0 0-4.77 4.106l-.136 1.262L4.1 51.127"/>
        <path d="M27.012 3.92h9.044a1.809 1.809 0 1 0 0-3.618h-9.044v3.617zM8.916 56.472a3.37 3.37 0 1 1-6.738 0 3.37 3.37 0 0 1 6.738 0z" stroke="#B0BADD" mask="url(#jggbsd0p4b)"/>
    </g>
</svg>
