<svg width="80" height="78" viewBox="0 0 80 78" xmlns="http://www.w3.org/2000/svg">
    <g stroke="#FFF" stroke-width="1.2" fill="none" fill-rule="evenodd">
        <path d="m46.499 14.744-6.96 3.48s-2.461 2.716.764 3.819l6.196.849s2.97.959 1.612 2.856H39.2s-1.952.2-3.055.454c-1.103.254-5.941 1.213-10.525-.454l-6.535.454s-1.952-7.47-.425-10.525c0 0 5.517-.34 10.525-3.48s7.639-3.734 8.742-3.65c0 0 4.152-.043 5.363-.17 0 0 1.147.111 2.05.84l3.551 2.998s.932.902 1.165 1.717c0 0 .902 2.126 1.222 2.592 0 0-.407 1.659-2.882.174 0 0-1.426-.96-2.27-2.911 0 0-2.388-1.34-3.057-1.95 0 0-3.96.465-4.542.261"/>
        <path d="m44.184 8.377 3.324-.301s1.384.055 2.16 1.052c.775.997 7.386 9.038 7.386 9.038s-1.164 1.33-3.213 0l-3.786-4.234"/>
        <path d="M48.688 8.377s1.319-.786 3.167.54c0 0 7.05 3.639 9.704 4.634 0 0-.142 2.69-3.98 1.268L52.583 12.7"/>
        <path d="m52.363 9.18 9.348 1.49s.484 2.266-2.27 2.034M42.963 55.257l-4.82 1.353-6.09.423-4.664-.467s-2.849-2.364-5.758-.788c0 0-.485.273-.151.97l2.879 1.539"/>
        <path d="m45.077 57.23-3.89-4.426s-5.243-.93-6.004-3.044c0 0-1.015-2.275.507-1.941 0 0 3.383 1.095 5.581 1.095 0 0 2.368.17 3.383.846l6.596 2.748s3.045 1.216 3.721 2.659c0 0 .508 1.697 4.144 2.458l2.521.458s1.482 5.026-2.92 10.45c0 0-4.148-1.022-8.487 0-4.339 1.02-5.55 1.85-9.57 2.041 0 0-6.317.255-8.231-2.17 0 0-2.298-1.722-2.935-3.381 0 0-.944-1.87-1.562-2.47 0 0-.318-1.628 1.685-1.18 2.003.45 3.295 2.828 3.295 2.828l3.707 1.703 3.4-.475"/>
        <path d="M38.768 62.402s-6.485.08-6.938 0M27.913 61.697s-1.624-2.385-4.502-2.25c0 0-.698.308-.698.887l4.26 5.623s.272.477 1.362.92l3.099.682"/>
        <path d="m23.344 61.185-3.526-1.902c-.333-.697.151-.97.151-.97 2.91-1.576 5.758.788 5.758.788l4.665.467 6.089-.273 1.805-.111M40.96 33.218a2.09 2.09 0 0 0-.663.113 2.676 2.676 0 0 0-.63.304c-.194.128-.36.248-.5.36-.14.111-.273.23-.399.356a4.87 4.87 0 0 0-.398-.357 6.76 6.76 0 0 0-.501-.359 2.688 2.688 0 0 0-.63-.304 2.09 2.09 0 0 0-.663-.113c-.784 0-1.397.217-1.841.65-.444.434-.666 1.036-.666 1.805 0 .234.04.475.123.724.082.248.176.46.28.634.105.175.224.346.357.512.133.166.23.28.291.343.061.063.11.109.144.137l3.273 3.157c.063.063.14.095.231.095s.168-.032.231-.095l3.268-3.147c.8-.8 1.2-1.587 1.2-2.36 0-.77-.221-1.37-.665-1.804-.444-.434-1.058-.65-1.841-.65z"/>
    </g>
</svg>
