<svg width="20" height="21" viewBox="0 0 20 21" fill="none" xmlns="http://www.w3.org/2000/svg">
<path d="M1.5 4.77789H3.38889H18.5" stroke="#9CA3B2" stroke-width="1.6" stroke-linecap="round" stroke-linejoin="round"/>
<path d="M17.4109 4.77778C17.4109 4.33595 17.0527 3.97778 16.6109 3.97778C16.1691 3.97778 15.8109 4.33595 15.8109 4.77778H17.4109ZM4.18867 4.77778C4.18867 4.33595 3.8305 3.97778 3.38867 3.97778C2.94684 3.97778 2.58867 4.33595 2.58867 4.77778H4.18867ZM5.42201 4.77778C5.42201 5.21961 5.78018 5.57778 6.22201 5.57778C6.66383 5.57778 7.02201 5.21961 7.02201 4.77778H5.42201ZM12.9776 4.77778C12.9776 5.21961 13.3357 5.57778 13.7776 5.57778C14.2194 5.57778 14.5776 5.21961 14.5776 4.77778H12.9776ZM15.8109 4.77778V18H17.4109V4.77778H15.8109ZM15.8109 18C15.8109 18.6014 15.3234 19.0889 14.722 19.0889V20.6889C16.207 20.6889 17.4109 19.485 17.4109 18H15.8109ZM14.722 19.0889H5.27756V20.6889H14.722V19.0889ZM5.27756 19.0889C4.67618 19.0889 4.18867 18.6014 4.18867 18H2.58867C2.58867 19.485 3.79253 20.6889 5.27756 20.6889V19.0889ZM4.18867 18V4.77778H2.58867V18H4.18867ZM7.02201 4.77778V2.88889H5.42201V4.77778H7.02201ZM7.02201 2.88889C7.02201 2.28751 7.50952 1.8 8.11089 1.8V0.2C6.62586 0.2 5.42201 1.40386 5.42201 2.88889H7.02201ZM8.11089 1.8H11.8887V0.2H8.11089V1.8ZM11.8887 1.8C12.49 1.8 12.9776 2.28751 12.9776 2.88889H14.5776C14.5776 1.40386 13.3737 0.2 11.8887 0.2V1.8ZM12.9776 2.88889V4.77778H14.5776V2.88889H12.9776Z" fill="#A3ACBF"/>
<path d="M8.11089 9.5V15.1667" stroke="#A3ACBF" stroke-width="1.6" stroke-linecap="round" stroke-linejoin="round"/>
<path d="M11.8892 9.5V15.1667" stroke="#A3ACBF" stroke-width="1.6" stroke-linecap="round" stroke-linejoin="round"/>
</svg>
