<svg width="80" height="78" viewBox="0 0 80 78" xmlns="http://www.w3.org/2000/svg">
    <g stroke="#B0BADD" stroke-width=".7" fill="none" fill-rule="evenodd">
        <path d="M27.063 44.925c-.999-4.364-2.13-9.31-2.112-14.96l.057-19.394 1.362.005-.001.064-.058 19.328c-.016 5.497 1.048 10.15 2.078 14.65.867 3.793 1.683 7.368 1.673 10.9 0 .07.04.13.103.157.068.03.139.013.187-.036a.17.17 0 0 0 .051-.122c.01-3.529.849-7.088 1.734-10.858 1.063-4.512 2.16-9.17 2.177-14.665l.059-19.392 1.36.005v.062l-.058 19.328c-.018 5.64-1.181 10.588-2.207 14.954-.87 3.702-1.693 7.194-1.704 10.571l-.03 17.048h-.064l-3-.01v-.063l.031-16.953v-.032c.01-3.37-.788-6.87-1.635-10.573l-.003-.014zm6.851-16.807L26.66 28.1l.001-.062.051-17.46h.064l7.257.023v.064l-.054 17.456-.064-.002zm.05 2.045-.003.257c-.072 5.306-1.13 9.798-2.151 14.141l-.005.022c-.451 1.92-.963 4.097-1.306 6.191l-.256 1.57-.247-1.571c-.332-2.106-.83-4.292-1.272-6.22-.993-4.344-2.021-8.833-2.061-14.152l-.001-.258h.063l7.239.02zm-.053-.343-7.257-.019.001-.064.004-1.295h.063l7.256.019-.001.062-.004 1.299-.062-.002zM23.895 8.115l.504.095c1.593.305 3.921.67 5.979.677h.057c2.042 0 4.344-.347 5.918-.637l.502-.092-.056.115-.997 1.99h-.038l-10.818-.033-1.051-2.115zm-.62-.484h-.002a1.103 1.103 0 0 1-.76-1.37 1.1 1.1 0 0 1 1.372-.754c.033.006 3.695.818 6.502.827 2.816-.013 6.484-.785 6.519-.793.273-.08.57-.043.829.104.26.145.446.382.526.665.16.564-.195 1.2-.76 1.361-.406.106-4.152.873-7.068.873h-.053c-2.905-.008-6.7-.806-7.106-.913zm5.223 65.27 3.405.012a.173.173 0 0 0 .12-.05.18.18 0 0 0 .052-.122l.03-17.218c.012-3.335.828-6.809 1.693-10.487C34.83 40.653 36 35.683 36.016 30l.086-19.57 1.18-2.361.12-.025.194-.042c.232-.067.447-.193.62-.365.372-.37.515-.914.372-1.42a1.442 1.442 0 0 0-.686-.87 1.42 1.42 0 0 0-1.084-.135c-.041.01-3.636.78-6.38.78h-.05c-2.496-.008-5.752-.674-6.379-.808a1.482 1.482 0 0 0-1.127.133 1.44 1.44 0 0 0-.697.848 1.43 1.43 0 0 0 .124 1.101c.186.339.493.585.863.692l.176.04.12.025 1.199 2.474-.059 19.467c-.016 5.69 1.124 10.674 2.129 15.07.83 3.637 1.617 7.071 1.622 10.37v.112l-.032 17.216c0 .093.078.17.17.17zM47.618 44.925c-.999-4.364-2.13-9.31-2.112-14.96l.057-19.394 1.362.005-.001.064-.058 19.328c-.016 5.497 1.047 10.15 2.078 14.65.866 3.793 1.683 7.368 1.673 10.9 0 .07.04.13.103.157.067.03.139.013.187-.036a.17.17 0 0 0 .051-.122c.01-3.529.849-7.088 1.734-10.858 1.062-4.512 2.16-9.17 2.177-14.665l.059-19.392 1.36.005v.062l-.058 19.328c-.018 5.64-1.181 10.588-2.207 14.954-.871 3.702-1.693 7.194-1.704 10.571l-.03 17.048h-.065l-3-.01v-.063l.032-16.953v-.032c.01-3.37-.788-6.87-1.636-10.573l-.002-.014zm6.851-16.807-7.255-.019.001-.062.051-17.46h.064l7.256.023v.064l-.053 17.456-.064-.002zm.05 2.045-.003.257c-.072 5.306-1.13 9.798-2.151 14.141l-.005.022c-.451 1.92-.964 4.097-1.306 6.191l-.256 1.57-.247-1.571c-.332-2.106-.831-4.292-1.272-6.22-.994-4.344-2.022-8.833-2.061-14.152l-.001-.258h.063l7.239.02zm-.054-.343-7.256-.019.001-.064.004-1.295h.062l7.257.019-.001.062-.004 1.299-.063-.002zM44.45 8.115l.504.095c1.592.305 3.921.67 5.979.677h.057c2.042 0 4.344-.347 5.917-.637l.502-.092-.056.115-.996 1.99h-.038L45.5 10.23 44.45 8.115zm-.62-.484h-.002a1.103 1.103 0 0 1-.76-1.37 1.1 1.1 0 0 1 1.372-.754c.033.006 3.695.818 6.502.827 2.816-.013 6.484-.785 6.518-.793.274-.08.571-.043.83.104.26.145.446.382.526.665.16.564-.195 1.2-.76 1.361-.406.106-4.152.873-7.069.873h-.052c-2.906-.008-6.7-.806-7.106-.913zm5.222 65.27 3.406.012a.173.173 0 0 0 .12-.05.18.18 0 0 0 .052-.122l.03-17.218c.012-3.335.828-6.809 1.693-10.487 1.032-4.383 2.202-9.353 2.218-15.037l.086-19.57 1.18-2.361.12-.025.194-.042a1.454 1.454 0 0 0 .992-1.784 1.442 1.442 0 0 0-.686-.872 1.42 1.42 0 0 0-1.085-.134c-.04.01-3.635.78-6.38.78h-.05c-2.495-.008-5.751-.674-6.378-.808a1.482 1.482 0 0 0-1.127.133 1.44 1.44 0 0 0-.697.848 1.43 1.43 0 0 0 .124 1.101 1.433 1.433 0 0 0 1.04.731l.119.026 1.199 2.474-.059 19.467c-.017 5.69 1.124 10.674 2.129 15.07.83 3.637 1.616 7.071 1.621 10.37l.002.112-.033 17.216c0 .093.077.17.17.17z"/>
    </g>
</svg>
