<svg width="80" height="78" viewBox="0 0 80 78" xmlns="http://www.w3.org/2000/svg">
    <g stroke="#FFF" fill="none" fill-rule="evenodd">
        <path d="M61.732 56.188V40.62M59.897 40.682v15.461M69.071 58.052v-.918a.918.918 0 0 0-.917-.918h-8.257M61.732 59.886h6.421c.507 0 .918-.41.918-.917v-.917h-7.72M44.726 36.951h11.457M56.167 40.62h-9.673M58.1 36.951h.88a2.751 2.751 0 0 1 2.752 2.752v.918H58.1M50.723 23.19a2.752 2.752 0 0 0-2.752-2.752H30.507"/>
        <path d="M58.07 55.393a4.587 4.587 0 1 1-1.888.008"/>
        <path d="M58.091 57.301a2.753 2.753 0 1 1-1.834-.021"/>
        <path d="M30.54 28.51v-3.486h21.1a4.593 4.593 0 0 1 4.587 4.588v30.274a.918.918 0 0 0 1.835 0V29.612a6.43 6.43 0 0 0-6.421-6.422H30.54v-6.423a4.593 4.593 0 0 0-4.587-4.587h-2.715"/>
        <path d="M23.238 14.016h2.715a2.755 2.755 0 0 1 2.752 2.752v11.706M22.283 14.933h-5.505a1.834 1.834 0 0 1 0-3.67h5.505c.507 0 .918.411.918.918v1.834c0 .507-.411.918-.918.918zM47.502 46.593c0 10.006-8.113 18.119-18.12 18.119-10.007 0-18.12-8.113-18.12-18.12 0-10.006 8.113-18.118 18.12-18.118 10.007 0 18.12 8.112 18.12 18.119z"/>
        <path d="M45.118 46.593c0 8.69-7.046 15.735-15.735 15.735-8.691 0-15.736-7.044-15.736-15.735 0-8.69 7.045-15.735 15.736-15.735 8.69 0 15.735 7.045 15.735 15.735z"/>
    </g>
</svg>
