<svg width="94" height="94" viewBox="0 0 94 94" fill="none" xmlns="http://www.w3.org/2000/svg">
<mask id="mask0_25_5679" style="mask-type:alpha" maskUnits="userSpaceOnUse" x="0" y="0" width="94" height="94">
<circle cx="46.8" cy="46.8" r="46.8" fill="white"/>
</mask>
<g mask="url(#mask0_25_5679)">
<circle cx="48.2998" cy="49.8774" r="53.5" fill="#99B1FB"/>
<path d="M42.9295 41.55L40.1318 43.9767C40.1318 43.9767 42.6161 45.6567 45.3884 46.0922L42.9295 41.55Z" fill="#7E9CF9"/>
<path d="M38.1642 27.5547C36.4303 31.5676 36.7075 36.1658 38.9108 39.9414C38.9108 39.9414 39.2841 41.1259 42.0864 41.3241L41.5886 36.2196L43.642 35.2978V30.2947L38.1642 27.5547Z" fill="#C6D0F8"/>
<path d="M62.6903 48.226C61.5957 44.6979 55.5694 43.2345 55.5694 43.2345C50.942 41.7757 51.7347 31.182 51.7347 31.182C51.4305 24.7293 45.7684 24.061 45.7684 24.061C39.9864 23.2084 37.6035 27.1836 37.6035 27.1836C37.6035 27.1836 37.9768 30.1795 41.2769 31.7926C41.4345 31.5117 41.7229 31.3289 42.0443 31.3064C42.5541 31.3467 42.9431 31.7792 42.9292 32.2904C42.9546 33.2284 42.761 35.3001 41.3391 35.9269C41.3391 35.9269 40.5279 45.5482 48.3194 48.8967C48.3194 48.8967 52.1541 51.0882 60.8582 47.1913C61.5306 47.4133 62.153 47.7648 62.6903 48.226Z" fill="#6283ED"/>
<circle cx="80.0687" cy="27.0108" r="1.82747" stroke="#4973F4" stroke-width="0.8"/>
<path d="M74.5547 25.3816V30.1219L76.5089 31.0115L76.071 35.5006C78.7374 35.3209 79.0669 34.565 79.0669 34.565C81.1639 30.9712 81.4274 26.5946 79.7767 22.7752L74.9418 21.2058L74.5547 25.3816Z" fill="#C6D0F8"/>
<path d="M76.2554 35.2588L75.6309 38.704L67.6758 37.7338L68.3971 31.1429L77.039 29.6035L76.2554 35.2588V35.2588Z" fill="#C6D0F8"/>
<path d="M76.0703 35.5007C78.7366 35.321 79.0662 34.5651 79.0662 34.5651C79.495 33.8326 79.853 33.061 80.1355 32.2606C80.1355 32.2606 78.9832 32.4357 78.2504 32.0025C78.2504 32.0025 77.5982 29.8616 77.7088 28.8453C77.8194 27.829 78.8795 24.8493 78.2412 24.0427L76.6672 26.6238C76.6672 26.6238 77.5198 27.6009 76.8216 31.6937" fill="#6E8CF1"/>
<path d="M76.8057 26.8036C76.6532 26.5377 76.3786 26.3649 76.0728 26.3427C75.5856 26.3816 75.2135 26.7942 75.2248 27.2829C75.2064 27.995 75.3193 29.3892 76.0498 30.2304C76.0498 30.2304 75.4645 32.2168 74.2892 32.9796C74.2892 32.9796 71.8257 34.7656 68.067 32.8368L67.9403 32.7469C68.0785 29.7303 66.8525 26.2274 66.8525 26.2274C67.1429 20.0883 72.5308 19.4499 72.5308 19.4499C79.0318 18.2977 80.0689 22.6532 80.0689 22.6532C80.0689 22.6532 79.7877 23.4505 77.1352 23.1141C77.5458 23.3746 77.9181 23.691 78.2414 24.0543" fill="#6E8CF1"/>
<path d="M81.7885 26.8679H76.8223" stroke="#4973F4" stroke-width="0.8"/>
<path d="M54.9658 72.3981H80.7578L83.1199 96.2681H93.7828C93.7828 96.2681 92.0383 64.0212 87.9294 49.2332C83.8205 34.4452 74.9919 36.5008 74.9919 36.5008L54.9658 45.5368V72.3981Z" fill="#4A71EB"/>
<path d="M57.6577 72.3979L51.2051 103.232H68.7884L72.1115 90.6266V101.294L86.3994 100.142C86.3994 100.142 86.8327 79.3622 83.982 72.4026L57.6577 72.3979Z" fill="#7994F0"/>
<path d="M26.1807 51.2864C26.1807 51.2864 39.5468 51.9109 60.1513 44.7854C60.1513 44.7854 70.9825 38.6692 76.6308 36.3325C76.6308 36.3325 80.7628 35.0005 82.6778 37.1898C84.5929 39.379 83.3692 41.5222 83.3692 41.5222C83.3692 41.5222 75.4924 51.1504 58.7548 58.9212C58.7548 58.9212 56.5609 69.7892 52.7493 73.9765H29.8932C28.0409 68.3946 26.8559 62.6131 26.3627 56.7527L26.1807 51.2864Z" fill="#CDD8F9"/>
<path d="M26.4385 58.9858C26.4385 58.9858 30.9599 65.012 34.9121 68.1185C38.8643 71.225 43.0101 69.061 43.0101 69.061L56.2956 62.0876C56.9751 61.7269 57.6964 61.4513 58.4434 61.2672C58.4434 61.2672 58.5056 61.2119 59.0172 61.1704C61.6766 60.963 72.3833 56.6928 64.1931 58.2691C66.7281 57.5086 70.36 56.1766 68.7699 55.7088C67.7605 55.5451 63.3335 56.8357 63.3335 56.8357C65.373 55.9346 69.8922 54.8561 68.544 54.0956C67.1268 53.9458 64.1954 54.9644 62.9787 55.2156C69.6041 53.3236 68.226 51.8672 63.8037 53.455C63.8037 53.455 60.5221 54.674 59.8975 54.5196C58.7453 54.0887 61.3286 52.7613 61.4992 52.5055C61.8886 52.2566 61.9094 51.5837 61.2687 51.7058C57.4478 52.8535 56.5998 55.1879 54.7401 56.6444L40.625 60.2924L34.0825 51.9847L26.4385 58.9858Z" fill="#7E9CF9"/>
<path d="M-4.37256 51.9087L1.17437 55.9208L-0.427256 70.8863L-6.5918 69.7893L-4.37256 51.9087V51.9087Z" fill="#7E9CF9"/>
<path d="M22.1133 68.8469C22.1133 68.8469 26.2476 72.6931 28.3355 100.739L-5.68359 94.6573C-5.68359 94.6573 -4.07044 72.1377 0.0246563 66.335L22.1133 68.8469Z" fill="#CDD8F9"/>
<path d="M25.4154 59.9421L35.2049 51.4478C35.2049 51.4478 28.3652 40.4322 24.406 39.1371C20.4469 37.842 14.7594 36.0399 6.55077 38.1277C-1.65787 40.2156 -7.2002 51.7358 -7.2002 51.7358L-0.503314 57.3519L-0.865121 66.8557L24.9107 70.8862L25.4154 59.9421Z" fill="#6283ED"/>
<path d="M16.7548 24.0864C16.7548 24.0864 18.9164 20.9638 22.7603 21.5514C26.6042 22.1391 27.8026 23.5932 28.2911 26.7158C28.7797 29.8384 25.876 34.6525 26.1226 37.7843C26.3692 40.9161 26.2424 44.2692 24.4403 45.5897C22.6382 46.9102 19.6377 48.8321 19.5179 50.1526C19.3981 51.4731 16.8746 55.7963 14.3535 55.9138C11.8324 56.0314 5.70703 55.5543 3.78738 50.383C1.86773 45.2117 5.58719 39.3353 6.3085 39.2154C7.02981 39.0956 11.7126 33.4542 12.1919 31.8917C12.6712 30.3293 16.7548 24.0864 16.7548 24.0864Z" fill="#4A71EB"/>
<path d="M52.7189 73.9766C52.7189 73.9766 58.9918 80.5813 60.0933 87.6169C61.5866 97.0654 60.4897 104.691 60.4897 104.691H27.6528C27.6528 104.691 25.5788 86.1697 30.3975 73.9766H52.7189Z" fill="#4A71EB"/>
<path d="M22.3508 43.7968C19.991 43.9144 17.8248 42.6999 14.1837 44.3338C13.6237 44.6679 14.0754 45.1565 14.5317 45.092C14.8266 45.1726 17.6543 44.4836 17.0666 45.5667C16.6933 46.0921 13.414 47.3158 13.414 47.3158C9.03542 49.0073 8.94094 51.003 15.1954 48.1016C14.103 48.7146 11.2155 49.8646 10.2476 50.9016C9.72447 52.3581 13.8472 50.2103 15.9789 49.565C15.9789 49.565 11.787 51.4847 11.1394 52.2682C10.243 53.6509 13.8634 52.2935 16.2762 51.2104C9.04925 55.377 20.1523 52.0423 22.1711 50.2886L22.3508 43.7968Z" fill="#BDCBF7"/>
<path d="M21.959 43.5456V51.3648C21.959 51.3648 39.9341 52.6208 60.1123 44.8615C60.1123 44.8615 70.9435 38.7454 76.5918 36.4109C76.5918 36.4017 65.8551 33.1754 21.959 43.5456Z" fill="#4A71EB"/>
</g>
</svg>
