<svg width="94" height="95" viewBox="0 0 94 95" fill="none" xmlns="http://www.w3.org/2000/svg">
<mask id="mask0_68_711" style="mask-type:alpha" maskUnits="userSpaceOnUse" x="0" y="0" width="94" height="95">
<circle cx="47.0002" cy="47.3601" r="46.8" fill="white"/>
</mask>
<g mask="url(#mask0_68_711)">
<circle cx="47.0104" cy="47.3497" r="46.7897" fill="#99B1FB"/>
<circle cx="30.1727" cy="28.9491" r="4.04772" stroke="#EBEEFE" stroke-width="0.8"/>
<path d="M82.4964 63.1138L78.6276 60.9453C78.6276 60.9453 48.8824 64.876 34.619 54.8394L23.536 61.4892C17.7317 65.5752 13.7215 71.7372 12.3359 78.6989V78.747C22.1033 89.5265 36.3302 95.1475 50.8276 93.955C65.3251 92.7625 78.4422 84.8923 86.3169 72.6617C84.3068 64.6213 82.4964 63.1138 82.4964 63.1138Z" fill="#EBEEFE"/>
<path d="M82.4966 63.1138L78.6278 60.9454C78.6278 60.9454 63.7793 62.9073 50.046 60.5186C49.7228 60.5402 49.4303 60.7173 49.2612 60.9935C48.0566 62.7145 47.7881 64.7246 47.3957 66.6934C47.4871 68.0139 47.1464 69.3283 46.4251 70.4382C45.9019 71.1817 46.3081 72.0422 46.5696 72.765C47.258 74.6167 46.5696 76.4409 46.5696 78.2721C46.5524 78.5722 46.4133 78.8522 46.1845 79.0472C45.9557 79.2422 45.6571 79.3352 45.3581 79.3046C44.9314 79.2694 44.5195 79.4701 44.2842 79.8278C43.4328 81.0619 42.5135 82.2477 41.5306 83.3799C41.0832 83.8962 41.1865 84.5983 41.0212 85.2179C40.9799 85.3556 40.9868 85.5827 41.1865 85.6103C41.3438 85.6264 41.5009 85.5765 41.6201 85.4726C42.1478 84.7789 43.1083 84.5844 43.8643 85.0183C44.3599 85.2317 44.8074 84.9288 45.2824 84.915C46.5903 84.8737 47.8913 85.0664 49.213 84.9632C50.3627 84.8737 51.526 84.9632 52.655 84.7498C55.5324 84.6741 58.3824 84.1302 61.2667 84.1578C63.6072 84.1578 65.9615 84.3368 68.1919 83.3868C69.1143 82.8636 70.1331 82.9944 71.1244 83.0082C71.6463 83.061 72.1331 82.7384 72.2878 82.2372C72.8078 80.9438 73.5027 79.7278 74.3529 78.6231C74.9863 77.8797 74.6903 76.8815 74.8692 76.0141C75.4681 73.1505 76.4043 70.5071 78.6278 68.4419C78.8923 68.0704 79.2723 67.7969 79.7086 67.664C81.3125 67.1408 82.4208 65.9499 83.6324 64.9105C83.3587 64.2514 82.9745 63.6438 82.4966 63.1138Z" fill="#B7C8FA"/>
<path d="M67.2832 89.5202C74.8622 85.8581 81.3191 80.2285 85.9798 73.2192C84.2864 72.6203 82.6687 71.8424 80.9339 71.333C80.3992 71.1766 80.0178 70.7046 79.9771 70.149C79.915 69.3695 79.408 68.6962 78.676 68.4211C76.4525 70.4863 75.5163 73.1504 74.9174 75.9934C74.7384 76.8608 75.0344 77.8589 74.4011 78.6024C73.5508 79.707 72.856 80.923 72.336 82.2164C72.1856 82.7547 71.6559 83.095 71.1038 83.0081C70.1125 83.0081 69.0937 82.8635 68.1712 83.3867C67.5621 84.8522 67.4179 86.4694 67.7582 88.0195C67.8182 88.4387 67.7093 88.8646 67.4553 89.2036C67.4071 89.3412 67.352 89.417 67.2832 89.5202Z" fill="#6E90F6"/>
<path d="M39.2726 69.3781C37.3933 68.3868 35.9271 66.776 33.972 65.9361C33.8894 65.8948 33.8688 65.7159 33.8137 65.6057H33.2423C33.2462 65.9271 33.2021 66.2473 33.1116 66.5557C32.3337 68.1459 32.8155 69.8462 32.6503 71.4845C32.6507 71.8783 32.8095 72.2554 33.0909 72.5309C34.1788 74.0203 34.0961 76.0632 32.8913 77.4597C31.8725 78.6162 30.8743 79.7934 29.9312 81.0187C28.5912 82.8296 26.9634 84.4086 25.1125 85.6929C25.0024 85.7617 24.8991 85.8856 24.789 85.8925C23.6118 85.9613 22.4622 86.3055 21.2988 86.4914C24.6412 88.693 28.2527 90.4559 32.0446 91.7369C31.3562 89.6029 31.8862 87.3794 31.8862 85.1972C32.6641 84.0063 34.0271 83.4831 34.9771 82.485C35.6655 81.7966 36.4227 81.1908 37.0422 80.468C37.6618 79.7452 37.4071 78.9329 37.2556 78.2376C36.9321 76.6956 37.7857 75.6699 38.5292 74.5754C38.9215 73.9972 39.4585 73.5084 39.9059 72.9715C40.732 71.9389 40.4016 69.9357 39.2726 69.3781Z" fill="#9EB4F8"/>
<path d="M51.0712 93.9536C51.1729 93.3331 51.5235 92.7811 52.0418 92.4253C52.6866 91.9252 52.9997 91.108 52.8541 90.3051C52.7794 89.829 52.5957 89.3767 52.3172 88.9834C51.9523 88.2537 51.2846 87.4621 51.8628 86.6635C52.2638 86.0906 52.5362 85.4378 52.6614 84.7498C51.5118 84.9288 50.3484 84.8737 49.2194 84.9632C47.8977 85.0665 46.5967 84.8737 45.2887 84.915C44.8137 84.915 44.3663 85.2317 43.8707 85.0183C43.1147 84.5845 42.1542 84.7789 41.6265 85.4726C41.5073 85.5766 41.3502 85.6264 41.1928 85.6103C40.9932 85.6103 40.9863 85.3556 41.0276 85.2179C41.1928 84.5984 41.0896 83.8962 41.537 83.3799C42.5199 82.2478 43.4392 81.0619 44.2906 79.8279C44.5259 79.4701 44.9377 79.2695 45.3645 79.3047C45.6635 79.3352 45.9621 79.2422 46.1908 79.0472C46.4196 78.8522 46.5588 78.5722 46.576 78.2721C46.576 76.441 47.2644 74.6168 46.576 72.765C46.3144 72.0766 45.8876 71.1817 46.4315 70.4383C47.1528 69.3284 47.4935 68.014 47.4021 66.6934C47.1359 66.4688 46.8554 66.2619 46.5623 66.0739C45.4539 65.1308 44.0978 64.4906 43.2236 63.2515C42.191 61.8059 39.9744 61.2896 38.6114 62.3222C37.0634 63.4807 35.4549 64.5561 33.7927 65.5438C33.8477 65.654 33.8684 65.8329 33.951 65.8742C35.906 66.7485 37.3929 68.3593 39.2516 69.3162C40.3805 69.9013 40.711 71.9045 39.8918 72.882C39.4443 73.419 38.9074 73.9077 38.515 74.486C37.7715 75.5805 36.9179 76.6062 37.2415 78.1482C37.3929 78.8366 37.5926 79.7315 37.0281 80.3786C36.4636 81.0256 35.6169 81.6934 34.9629 82.3955C34.013 83.3937 32.6499 83.9169 31.8721 85.1078C31.9753 85.1629 32.175 85.2248 32.175 85.2799C32.175 86.3675 33.0492 87.0697 33.2901 88.0334C33.6275 89.3276 34.5086 89.6374 35.6651 89.5823C36.0598 89.5092 36.4561 89.7018 36.6426 90.0573C36.8915 90.4776 37.2782 90.7987 37.7371 90.966C38.1229 91.1195 38.4068 91.455 38.4944 91.8609C38.613 92.4688 38.8991 93.0314 39.3204 93.4855C41.8607 93.9204 44.4325 94.146 47.0097 94.1601C48.3865 94.1601 49.7633 94.0706 51.0712 93.9536Z" fill="#ABBEF9"/>
<path d="M20.5074 85.8996C23.3573 85.8996 26.221 86.0923 29.064 85.9684C30.0278 85.9202 31.8795 86.8013 31.9965 84.5916C31.9965 84.5228 32.1411 84.4608 32.2237 84.3989C32.4416 84.2433 32.5242 83.9585 32.4233 83.7105C32.0631 82.4522 31.9509 81.1359 32.0929 79.8349C32.1528 79.2991 31.9441 78.7683 31.5353 78.4168C29.3463 76.3998 26.8474 74.727 24.8029 72.538C22.9029 70.4728 20.6726 68.683 19.874 65.8468C19.7867 65.574 19.6187 65.334 19.3922 65.1584C16.6597 68.0702 14.5762 71.5287 13.2793 75.3053C13.2793 75.5806 13.2793 75.856 13.2793 76.1245V79.7523C15.4753 82.0398 17.897 84.0993 20.5074 85.8996V85.8996Z" fill="#6E90F6"/>
<path d="M65.872 78.878C65.2387 77.8041 64.9771 76.4962 63.8826 75.677C63.5109 75.4017 63.0428 75.3122 62.7261 74.9267C61.5421 73.4742 59.9037 73.7771 58.3342 73.8666C57.7422 73.8666 57.6458 74.3897 57.6458 74.7959C57.7491 76.9368 57.1639 78.9813 56.7715 81.0327C56.4342 82.7605 56.3447 84.5366 55.7872 86.2231C55.3124 87.6379 54.9736 89.0946 54.7752 90.5737C54.7334 90.9725 54.8904 91.3663 55.1951 91.6269C55.6929 92.1466 56.2167 92.6405 56.7647 93.107C61.1463 92.1768 65.3707 90.6187 69.3071 88.481C69.3109 87.0334 68.9836 85.6042 68.3502 84.3025C67.4484 82.5471 66.8771 80.599 65.872 78.878Z" fill="#4D76F5"/>
<path d="M86.3308 72.6893C85.8352 70.7274 85.3602 69.1579 84.9127 67.8706C84.1053 68.0749 83.2741 68.1698 82.4414 68.1528C81.9992 68.1357 81.5667 68.2856 81.2299 68.5728C79.9193 69.5682 78.8645 70.8613 78.1528 72.3451C77.7329 73.2538 76.8999 73.9491 76.776 74.9885C76.5401 76.6438 76.1929 78.2813 75.7365 79.8898C75.2822 81.3974 75.5094 82.9394 75.53 84.4263C79.7707 81.1557 83.4232 77.1866 86.3308 72.6893V72.6893Z" fill="#B7C8FA"/>
<path d="M24.238 62.5631C24.8835 62.532 25.4852 62.8898 25.7662 63.4718C25.864 63.6691 26.0421 63.8146 26.2549 63.8711C26.584 63.9612 26.8698 64.1664 27.0604 64.4493C27.5985 64.9501 28.3819 65.0852 29.0567 64.7935C29.9516 64.2772 30.0755 63.2378 30.64 62.4943C30.6911 62.3646 30.6757 62.2181 30.5987 62.1019C30.1338 61.5526 30.0192 60.7877 30.3027 60.1262C30.3164 60.0674 30.3164 60.0061 30.3027 59.9473C30.2132 58.8458 30.8396 58.0817 31.5211 57.352C31.6519 57.2144 31.8859 57.1662 31.8584 56.9115C31.8423 56.7556 31.7335 56.625 31.5831 56.5811L23.405 61.4893L23.3018 61.5581C23.4587 61.7782 23.6012 62.0081 23.7286 62.2465C23.808 62.4545 24.0163 62.584 24.238 62.5631V62.5631Z" fill="#ABBEF9"/>
<path d="M57.7211 84.9976C57.5421 86.6222 57.3562 88.4877 57.129 90.3395C57.0602 90.904 56.8399 91.4065 56.0689 91.1518C54.995 90.8007 54.0038 91.3721 53.0469 91.6061C51.5049 91.9779 49.9905 91.5579 48.4691 91.6956C47.9528 91.7369 47.7394 91.3514 47.5811 90.8971C47.2941 89.8629 46.9517 88.8449 46.5554 87.8475C46.3126 87.3574 46.3413 86.7763 46.6311 86.3124C47.1543 85.4038 47.0304 84.3574 47.0304 83.3592C47.1488 81.9254 47.3789 80.503 47.7188 79.105C47.7601 78.8365 47.8083 78.4166 48.1594 78.3753C49.5361 78.2032 50.9611 77.2395 52.4067 78.2032C52.6545 78.3684 52.9299 78.3065 53.1846 78.3547C53.6183 78.4373 54.1139 78.4992 54.3342 78.8985C55.0708 80.234 56.2273 81.2459 57.0877 82.485C57.5629 83.2329 57.7849 84.1138 57.7211 84.9976V84.9976Z" fill="#9EB4F8"/>
<path d="M19.0617 78.7747C20.7 77.398 21.5743 75.5806 22.6826 73.8803C23.1231 73.1919 22.6826 73.0336 22.1594 72.9785C21.8262 72.9977 21.4962 73.0531 21.175 73.1437C19.8395 73.364 18.5798 73.8321 17.1342 73.6325C15.9876 73.5235 14.8322 73.5512 13.6922 73.7151C13.0336 75.3358 12.5244 77.0132 12.1709 78.7265V78.7747C13.7919 80.5416 15.543 82.1846 17.4095 83.6898C17.4095 83.2906 17.4715 82.8982 17.5128 82.5058C17.6436 81.1497 17.9878 79.6628 19.0617 78.7747Z" fill="#B7C8FA"/>
<path d="M60.3994 66.363C60.3994 65.1928 60.3994 64.0156 60.3994 62.8385C60.3994 62.3153 60.5922 62.1501 61.0878 62.1501C62.0722 62.095 62.9258 62.1501 63.4077 63.2102C63.6899 63.8435 64.4747 63.995 64.9634 64.4424C66.9256 66.1706 69.2638 67.4175 71.7922 68.084C73.2791 68.5177 74.6421 69.3781 76.1153 69.922C76.3965 70.0367 76.6114 70.2718 76.7004 70.5622C76.7486 70.9201 76.2736 70.8788 76.0533 71.044C74.3461 72.2969 72.2466 71.9596 70.3741 72.4965C68.9671 72.9292 67.5136 73.1927 66.0442 73.2813C65.2525 73.2813 64.7431 73.0748 64.5779 72.2763C64.511 71.7984 64.1443 71.4178 63.6693 71.3332C63.1805 71.2161 62.7193 71.0027 62.2374 70.8788C60.4201 70.4107 60.4201 70.4176 60.4201 68.4832V66.363H60.3994Z" fill="#B7C8FA"/>
<path d="M54.9265 59.8578C56.5787 59.8578 58.2239 59.8578 59.876 59.8578C60.1256 59.8164 60.3811 59.8826 60.5792 60.04C60.7773 60.1974 60.8994 60.4313 60.9155 60.6838C61.1427 62.1639 60.9155 63.4374 59.5387 64.3667C58.2746 65.3005 57.1603 66.4217 56.2345 67.6916C55.6218 68.4282 54.961 69.1372 54.2795 69.8187C54.0177 70.1337 53.5927 70.2613 53.2008 70.1427C52.8088 70.024 52.5259 69.6822 52.4828 69.2749C52.2349 68.0014 51.8907 66.7485 51.6292 65.475C51.3102 64.4602 50.8662 63.489 50.3075 62.5838C50.0115 61.9849 49.6191 61.4204 49.3644 60.8215C49.1097 60.2226 49.1923 59.844 50.0046 59.8646C51.6292 59.8853 53.2813 59.8578 54.9265 59.8578Z" fill="#7092F7"/>
<path d="M40.5393 49.7314L34.6191 54.8393C34.6191 54.8393 39.8784 58.3638 45.7159 59.3L40.5393 49.7314Z" fill="#7E9CF9"/>
<path d="M30.8402 19.5801C27.1827 28.0295 27.7681 37.7157 32.4166 45.6631C32.4166 45.6631 33.2014 48.155 39.1009 48.5474L38.0614 37.8017L42.3913 35.8329V25.3212L30.8402 19.5801Z" fill="#7E9CF9"/>
<path d="M82.4969 63.1138C80.1839 55.6792 67.4969 52.6021 67.4969 52.6021C57.7494 49.525 59.4015 27.2213 59.4015 27.2213C58.7751 13.6187 46.8591 12.242 46.8591 12.242C34.6746 10.4453 29.6494 18.8092 29.6494 18.8092C29.6494 18.8092 30.4479 25.0873 37.3731 28.4948C37.7739 27.6843 38.7013 27.2818 39.567 27.5425C40.4327 27.8033 40.9836 28.651 40.8701 29.548C40.9252 31.5306 40.519 35.8881 37.5246 37.2098C37.5246 37.2098 35.8105 57.4759 52.2216 64.525C52.2216 64.525 60.2964 69.1372 78.6282 60.9316C80.0487 61.3974 81.3634 62.139 82.4969 63.1138V63.1138Z" fill="#4973F4"/>
<path d="M37.3588 28.6325H26.3652" stroke="#EBEEFE" stroke-width="0.8"/>
</g>
</svg>
