<svg width="30" height="30" viewBox="0 0 30 30" fill="none" xmlns="http://www.w3.org/2000/svg">
<circle cx="15.3333" cy="15.3333" r="13.3333" fill="#4B75F5"/>
<path d="M20.2207 12.4563C20.0673 12.2965 19.814 12.2921 19.6551 12.4464C19.6518 12.4496 19.6485 12.4529 19.6453 12.4563L13.1281 19.0097L11.0109 16.8807C10.852 16.7264 10.5988 16.7308 10.4453 16.8906C10.2956 17.0465 10.2956 17.2936 10.4453 17.4495L12.8453 19.8628C13.0015 20.0198 13.2547 20.0198 13.4109 19.8628L20.2109 13.0251C20.3698 12.8707 20.3742 12.6161 20.2207 12.4563Z" fill="#2F449A" stroke="white" stroke-width="0.1"/>
<path fill-rule="evenodd" clip-rule="evenodd" d="M20.1321 12.4373C20.0681 12.3703 19.9811 12.3323 19.8871 12.3303C19.7881 12.3273 19.7041 12.3633 19.6381 12.4293L19.5931 12.4023L19.6281 12.4373L13.0751 19.0273L13.0401 18.9913L10.9231 16.8623C10.8581 16.7993 10.7721 16.7643 10.6801 16.7643H10.6741C10.5811 16.7663 10.4941 16.8043 10.4291 16.8723C10.2971 17.0093 10.2971 17.2243 10.4291 17.3623L12.8281 19.7743C12.9611 19.9083 13.1921 19.9073 13.3231 19.7743L20.1231 12.9363C20.2631 12.8013 20.2661 12.5773 20.1321 12.4373" fill="white"/>
</svg>
